<?xml version="1.0" standalone="no"?><!DOCTYPE svg PUBLIC "-//W3C//DTD SVG 1.1//EN" "http://www.w3.org/Graphics/SVG/1.1/DTD/svg11.dtd"><svg t="1715141323678" class="icon" viewBox="0 0 1024 1024" version="1.1" xmlns="http://www.w3.org/2000/svg" p-id="1213" xmlns:xlink="http://www.w3.org/1999/xlink" width="200" height="200"><path d="M511.6928 509.696m-450.816 0a450.816 450.816 0 1 0 901.632 0 450.816 450.816 0 1 0-901.632 0Z" fill="#FFF7DC" p-id="1214"></path><path d="M687.616 236.9536v168.96a84.9408 84.9408 0 0 1-84.9408 84.9408H431.4624a84.8896 84.8896 0 0 1-84.9408-85.1968V218.0608h-30.2592a70.0928 70.0928 0 0 0-70.144 70.0928v429.2608a70.0928 70.0928 0 0 0 70.144 70.0928h402.176A70.0928 70.0928 0 0 0 788.48 717.4144V349.2352a25.6 25.6 0 0 0-7.424-17.9712z" fill="#FF8E12" p-id="1215"></path><path d="M408.9344 218.0608v187.5968a22.528 22.528 0 0 0 22.528 22.528h171.2128a22.5792 22.5792 0 0 0 22.528-22.528V218.0608z m165.1712 180.4288H484.5568a31.232 31.232 0 0 1 0-62.4128h89.5488a31.232 31.232 0 0 1 0 62.4128z" fill="#FCB138" p-id="1216"></path><path d="M788.48 349.2352a25.6 25.6 0 0 0-7.424-17.9712L687.616 236.9536v168.96a84.9408 84.9408 0 0 1-84.9408 84.9408H431.4624a84.8896 84.8896 0 0 1-84.9408-85.1968V218.0608h-30.2592a70.0928 70.0928 0 0 0-70.144 70.0928v429.2608a70.0928 70.0928 0 0 0 70.144 70.0928h136.704A451.584 451.584 0 0 0 788.48 517.5296z" fill="#FCA315" p-id="1217"></path><path d="M246.1184 634.5216h3.0208a449.4336 449.4336 0 0 0 330.1888-143.9744H431.4624a84.8896 84.8896 0 0 1-84.9408-84.8896V218.0608h-30.2592a70.0928 70.0928 0 0 0-70.144 70.0928zM695.7568 245.1456l-8.1408-8.192v51.7632c3.584-14.2848 6.144-28.8256 8.1408-43.5712z" fill="#FCB138" p-id="1218"></path><path d="M348.16 421.9392a85.248 85.248 0 0 1-1.5872-16.2816V218.0608h-30.3104a70.0928 70.0928 0 0 0-70.144 70.0928v173.2096A447.5904 447.5904 0 0 0 348.16 421.9392zM408.9344 382.7712A452.352 452.352 0 0 0 542.72 218.0608H408.9344z" fill="#FFC65E" p-id="1219"></path></svg>