<?xml version="1.0" standalone="no"?><!DOCTYPE svg PUBLIC "-//W3C//DTD SVG 1.1//EN" "http://www.w3.org/Graphics/SVG/1.1/DTD/svg11.dtd"><svg t="1715247215752" class="icon" viewBox="0 0 1024 1024" version="1.1" xmlns="http://www.w3.org/2000/svg" p-id="763" xmlns:xlink="http://www.w3.org/1999/xlink" width="64" height="64"><path d="M808.67150421 840.64510742a255.14743561 255.14743561 0 0 0 0-31.64630951 296.6829419 296.6829419 0 0 0-160.86749359-263.71777954 296.6829419 296.6829419 0 0 0 142.40795288-366.56806549 32.30529602 32.30529602 0 0 0 18.45954071-29.00860382 32.96516235 32.96516235 0 0 0-32.96428253-32.96516235h-527.43555908a32.96516235 32.96516235 0 0 0-32.96516236 32.96516235 32.30529602 32.30529602 0 0 0 18.46042054 29.66759033 296.6829419 296.6829419 0 0 0 142.40795287 365.90907898 296.6829419 296.6829419 0 0 0-160.86837341 263.71777954 255.14743561 255.14743561 0 0 0 0 31.64718934 32.96516235 32.96516235 0 0 0-32.96516235 34.28225554 32.96516235 32.96516235 0 0 0 32.96516235 32.96516236h592.04703095a32.96516235 32.96516235 0 0 0 34.28313538-32.96516236 32.96516235 32.96516235 0 0 0-32.96516236-34.28313537z m-527.43555909-559.08186859a228.77565765 228.77565765 0 0 1 22.41609925-98.89460724h416.67479554a230.75349701 230.75349701 0 1 1-439.09089478 98.89460724z m461.5061142 559.08274842H283.21378449a247.23519836 247.23519836 0 0 1 0-31.64718934 230.75349701 230.75349701 0 0 1 461.50611419 0 247.23519836 247.23519836 0 0 1-3.95567871 31.64718934z" fill="#8a8a8a" p-id="764"></path><path d="M682.08714599 383.09467194H341.89085846a197.78833465 197.78833465 0 0 0 340.19628753 0z" fill="#8a8a8a" p-id="765"></path></svg>